<svg width="32" height="32" viewBox="0 0 32 32" fill="none" xmlns="http://www.w3.org/2000/svg">
<path d="M24 14.6667C24 13.388 23.0933 12.3187 21.892 12.0613C22.372 11.26 22.6667 10.3333 22.6667 9.33333C22.6667 6.392 20.2747 4 17.3333 4C15.3107 4 13.572 5.14267 12.6667 6.80533C11.7613 5.14267 10.0227 4 8 4C5.05866 4 2.66666 6.392 2.66666 9.33333C2.66666 10.536 3.08266 11.636 3.756 12.528C3.09866 13.0147 2.66666 13.7893 2.66666 14.6667V25.3333C2.66666 26.804 3.86266 28 5.33333 28H21.3333C22.804 28 24 26.804 24 25.3333V21.816L29.3333 24.4827V15.1493L24 17.816V14.6667ZM17.3333 6.66667C18.804 6.66667 20 7.86267 20 9.33333C20 10.804 18.804 12 17.3333 12C15.8627 12 14.6667 10.804 14.6667 9.33333C14.6667 7.86267 15.8627 6.66667 17.3333 6.66667ZM8 6.66667C9.47066 6.66667 10.6667 7.86267 10.6667 9.33333C10.6667 10.804 9.47066 12 8 12C6.52933 12 5.33333 10.804 5.33333 9.33333C5.33333 7.86267 6.52933 6.66667 8 6.66667ZM5.33333 25.3333V14.6667H21.3333L21.336 25.3333H5.33333Z" fill="white"/>
</svg>
