<svg width="45" height="43" viewBox="0 0 45 43" fill="none" xmlns="http://www.w3.org/2000/svg">
<path d="M0 10C0 4.47715 4.47715 0 10 0H15C31.5685 0 45 13.4315 45 30V43H10C4.47715 43 0 38.5228 0 33V10Z" fill="url(#paint0_linear)"/>
<path d="M28.0437 17.3361L19.7937 14.3368C19.2318 14.1323 18.6048 14.2139 18.1153 14.5577C17.6248 14.8996 17.3333 15.4606 17.3333 16.0592V21.6774C16.7916 21.3612 16.1701 21.1669 15.5 21.1669C13.4778 21.1669 11.8333 22.8113 11.8333 24.8335C11.8333 26.8557 13.4778 28.5002 15.5 28.5002C17.5222 28.5002 19.1667 26.8557 19.1667 24.8335V16.0592L27.4167 19.0585V25.3432C26.8749 25.0279 26.2534 24.8335 25.5833 24.8335C23.5612 24.8335 21.9167 26.478 21.9167 28.5002C21.9167 30.5224 23.5612 32.1669 25.5833 32.1669C27.6055 32.1669 29.25 30.5224 29.25 28.5002V19.0585C29.25 18.2903 28.7651 17.5973 28.0437 17.3361ZM15.5 26.6669C14.4889 26.6669 13.6667 25.8446 13.6667 24.8335C13.6667 23.8224 14.4889 23.0002 15.5 23.0002C16.5111 23.0002 17.3333 23.8224 17.3333 24.8335C17.3333 25.8446 16.5111 26.6669 15.5 26.6669ZM25.5833 30.3335C24.5723 30.3335 23.75 29.5113 23.75 28.5002C23.75 27.4891 24.5723 26.6669 25.5833 26.6669C26.5944 26.6669 27.4167 27.4891 27.4167 28.5002C27.4167 29.5113 26.5944 30.3335 25.5833 30.3335Z" fill="white"/>
<defs>
<linearGradient id="paint0_linear" x1="24.8507" y1="35.1341" x2="7.2813" y2="14.1441" gradientUnits="userSpaceOnUse">
<stop stop-color="#F68D1E"/>
<stop offset="1" stop-color="#ED1C24"/>
</linearGradient>
</defs>
</svg>
