<svg width="18" height="18" viewBox="0 0 18 18" fill="none" xmlns="http://www.w3.org/2000/svg">
<path d="M14.9063 2.25H3.09375C2.21475 2.25 1.5 2.92275 1.5 3.75V14.25C1.5 15.0773 2.21475 15.75 3.09375 15.75H14.9063C15.7853 15.75 16.5 15.0773 16.5 14.25V3.75C16.5 2.92275 15.7853 2.25 14.9063 2.25ZM14.9063 14.25H3.09375C3.051 14.25 3.02175 14.238 3.009 14.238C3.00375 14.238 3.00075 14.2395 3 14.244L2.991 3.7845C2.99625 3.777 3.03 3.75 3.09375 3.75H14.9063C14.9655 3.75075 14.9978 3.771 15 3.756L15.009 14.2155C15.0038 14.223 14.97 14.25 14.9063 14.25Z" fill="white"/>
<path d="M4.5 5.25H9V9.75H4.5V5.25ZM9.75 11.25H4.5V12.75H9.75H10.5H13.5V11.25H10.5H9.75ZM10.5 8.25H13.5V9.75H10.5V8.25ZM10.5 5.25H13.5V6.75H10.5V5.25Z" fill="white"/>
</svg>
