<svg width="18" height="18" viewBox="0 0 18 18" fill="none" xmlns="http://www.w3.org/2000/svg">
<path d="M15 16.5V7.5V6.957V3C15 2.17275 14.3272 1.5 13.5 1.5H4.5C3.67275 1.5 3 2.17275 3 3V6.957V7.5V16.5L9 13.071L15 16.5ZM4.5 7.5V6.957V3H13.5V6.957V7.5V13.9148L9 11.3438L4.5 13.9148V7.5Z" fill="white"/>
<path d="M11.5567 7.13399C11.8275 6.85499 11.9955 6.46799 11.9955 6.04199C11.9955 5.61599 11.8282 5.22974 11.5567 4.94999C11.286 4.67099 10.9117 4.49774 10.4977 4.49774C10.4977 4.49774 9.75074 4.49549 8.99999 5.26949C8.24924 4.49549 7.50224 4.49774 7.50224 4.49774C7.08824 4.49774 6.71399 4.67024 6.44324 4.94999C6.17174 5.22974 6.00449 5.61524 6.00449 6.04199C6.00449 6.46874 6.17174 6.85499 6.44324 7.13399L8.99999 9.90224L11.5567 7.13399Z" fill="white"/>
</svg>
