<svg width="18" height="18" viewBox="0 0 18 18" fill="none" xmlns="http://www.w3.org/2000/svg">
<path d="M12.4072 6.02098C12.39 7.14823 12.015 8.67448 10.257 9.26623C10.8075 7.95673 10.8915 6.70348 10.5015 5.53198C9.98025 3.95923 8.241 2.73073 7.08375 2.06173C6.6885 1.83223 6.1815 2.11723 6.189 2.57398C6.204 3.40798 5.9505 4.62673 4.71975 5.85748C3.08025 7.49548 2.25 9.18823 2.25 10.8877C2.25 13.0215 3.75 15.75 6.75 15.75C3.71925 12.7192 6 10.1377 6 10.1377C6.6345 14.5732 9.741 15.75 11.25 15.75C12.5332 15.75 15 14.8125 15 10.914C15 8.56423 14.001 6.78073 13.2113 5.73973C12.951 5.39623 12.4132 5.59123 12.4072 6.02098Z" fill="white"/>
</svg>
