<svg width="42" height="42" viewBox="0 0 42 42" fill="none" xmlns="http://www.w3.org/2000/svg">
<rect width="42" height="42" rx="5" fill="#ED1C24"/>
<path d="M31.4382 16.6889C31.4254 15.8057 31.262 14.9295 30.9494 14.1035C30.4022 12.693 29.288 11.5777 27.8775 11.0317C27.062 10.7249 26.1999 10.5604 25.3272 10.5417C24.2049 10.4915 23.849 10.4775 21 10.4775C18.151 10.4775 17.7859 10.4775 16.6717 10.5417C15.8002 10.5604 14.938 10.7249 14.1225 11.0317C12.712 11.5777 11.5967 12.693 11.0507 14.1035C10.7439 14.919 10.5782 15.7812 10.5619 16.6527C10.5117 17.7762 10.4965 18.132 10.4965 20.981C10.4965 23.83 10.4965 24.194 10.5619 25.3094C10.5794 26.182 10.7439 27.043 11.0507 27.8609C11.5979 29.2702 12.712 30.3855 14.1237 30.9315C14.9357 31.2489 15.7979 31.4285 16.6729 31.4565C17.7964 31.5067 18.1522 31.5219 21.0012 31.5219C23.8502 31.5219 24.2154 31.5219 25.3295 31.4565C26.201 31.439 27.0632 31.2745 27.8799 30.9677C29.2904 30.4205 30.4045 29.3052 30.9517 27.8959C31.2585 27.0792 31.423 26.2182 31.4405 25.3444C31.4907 24.222 31.5059 23.8662 31.5059 21.016C31.5035 18.167 31.5035 17.8054 31.4382 16.6889ZM20.993 26.3687C18.0134 26.3687 15.5995 23.9549 15.5995 20.9752C15.5995 17.9955 18.0134 15.5817 20.993 15.5817C23.9704 15.5817 26.3865 17.9955 26.3865 20.9752C26.3865 23.9549 23.9704 26.3687 20.993 26.3687ZM26.6012 16.6399C25.9047 16.6399 25.3435 16.0775 25.3435 15.3822C25.3435 14.6869 25.9047 14.1245 26.6012 14.1245C27.2954 14.1245 27.8577 14.6869 27.8577 15.3822C27.8577 16.0775 27.2954 16.6399 26.6012 16.6399Z" fill="white"/>
<path d="M20.993 24.4792C22.9279 24.4792 24.4965 22.9106 24.4965 20.9757C24.4965 19.0407 22.9279 17.4722 20.993 17.4722C19.0581 17.4722 17.4895 19.0407 17.4895 20.9757C17.4895 22.9106 19.0581 24.4792 20.993 24.4792Z" fill="white"/>
</svg>
