<svg width="32" height="32" viewBox="0 0 32 32" fill="none" xmlns="http://www.w3.org/2000/svg">
<path d="M22.1387 14.7305C22.944 13.3585 23.3013 11.7599 23.14 10.1439C22.9013 7.76521 21.5733 5.66254 19.4027 4.22388L17.9293 6.44521C19.4213 7.43454 20.3293 8.84388 20.4867 10.4105C20.6333 11.8839 20.1133 13.3359 19.0573 14.3919L17.468 15.9812L19.6253 16.6145C25.268 18.2679 25.3333 23.9425 25.3333 23.9999H28C28 21.6145 26.7253 16.9532 22.1387 14.7305Z" fill="white"/>
<path d="M12.6667 15.9999C15.608 15.9999 18 13.6079 18 10.6666C18 7.72525 15.608 5.33325 12.6667 5.33325C9.72533 5.33325 7.33333 7.72525 7.33333 10.6666C7.33333 13.6079 9.72533 15.9999 12.6667 15.9999ZM12.6667 7.99992C14.1373 7.99992 15.3333 9.19592 15.3333 10.6666C15.3333 12.1373 14.1373 13.3333 12.6667 13.3333C11.196 13.3333 10 12.1373 10 10.6666C10 9.19592 11.196 7.99992 12.6667 7.99992ZM14.6667 17.3333H10.6667C6.25466 17.3333 2.66666 20.9213 2.66666 25.3333V26.6666H5.33333V25.3333C5.33333 22.3919 7.72533 19.9999 10.6667 19.9999H14.6667C17.608 19.9999 20 22.3919 20 25.3333V26.6666H22.6667V25.3333C22.6667 20.9213 19.0787 17.3333 14.6667 17.3333Z" fill="white"/>
</svg>
