<svg width="42" height="42" viewBox="0 0 42 42" fill="none" xmlns="http://www.w3.org/2000/svg">
<rect width="42" height="42" rx="5" fill="#ED1C24"/>
<path d="M32.1919 15.4037C31.9235 14.4027 31.136 13.6128 30.1362 13.3433C28.3092 12.8417 21 12.8335 21 12.8335C21 12.8335 13.692 12.8253 11.8639 13.3048C10.8839 13.572 10.0742 14.3793 9.80352 15.3792C9.32169 17.2062 9.31702 20.9955 9.31702 20.9955C9.31702 20.9955 9.31235 24.8035 9.79069 26.6118C10.059 27.6117 10.8465 28.4015 11.8475 28.671C13.6932 29.1727 20.9825 29.1808 20.9825 29.1808C20.9825 29.1808 28.2917 29.189 30.1187 28.7107C31.1174 28.4423 31.9084 27.6537 32.1802 26.6538C32.6632 24.828 32.6667 21.0398 32.6667 21.0398C32.6667 21.0398 32.69 17.2307 32.1919 15.4037ZM18.662 24.506L18.6679 17.506L24.7427 21.0118L18.662 24.506Z" fill="white"/>
</svg>
